<?xml version="1.0" encoding="UTF-8" standalone="no"?>
<svg
   viewBox="0 0 375 375"
   version="1.1"
   id="svg4"
   sodipodi:docname="Khanda.svg"
   inkscape:version="1.3.2 (091e20e, 2023-11-25, custom)"
   width="375"
   height="375"
   inkscape:export-filename="..\..\favicon.ico"
   inkscape:export-xdpi="12.288"
   inkscape:export-ydpi="12.288"
   xmlns:inkscape="http://www.inkscape.org/namespaces/inkscape"
   xmlns:sodipodi="http://sodipodi.sourceforge.net/DTD/sodipodi-0.dtd"
   xmlns="http://www.w3.org/2000/svg"
   xmlns:svg="http://www.w3.org/2000/svg">
  <defs
     id="defs4" />
  <sodipodi:namedview
     id="namedview4"
     pagecolor="#852324"
     bordercolor="#000000"
     borderopacity="0.25"
     inkscape:showpageshadow="2"
     inkscape:pageopacity="0.0"
     inkscape:pagecheckerboard="0"
     inkscape:deskcolor="#d1d1d1"
     inkscape:zoom="2.0775401"
     inkscape:cx="151.62162"
     inkscape:cy="187"
     inkscape:window-width="1920"
     inkscape:window-height="991"
     inkscape:window-x="-9"
     inkscape:window-y="-9"
     inkscape:window-maximized="1"
     inkscape:current-layer="svg4"
     inkscape:export-bgcolor="#852324ff" />
  <g
     id="g4"
     transform="translate(36)">
    <path
       d="m 114.877,309.764 c 18.046,-10.995 38.956,-15.966 70.434,-36.418 26.38,-17.141 48.25,-29.316 75.218,-78.287 41.117,-74.668 -23.026,-123.665 -23.026,-123.665 0,0 67.425,23.7 65.455,90.145 -1.97,66.445 -31.994,95.986 -46.376,111.807 -15.2,16.719 -24.046,45.267 -22.37,46.384 l -40.131,-33.082 c -26.402,15.391 -53.042,24.996 -79.204,40.864 0,0 6.925,15.211 -7.713,20.605 -9.158,3.375 -13.96,1.322 -16.434,-3.88 -2.828,-5.943 -0.89,-19.22 24.147,-34.473 z"
       id="path1"
       style="fill:#ecb21d;fill-opacity:1" />
    <path
       d="M 188.123,309.764 C 170.077,298.769 149.167,293.798 117.689,273.346 91.308,256.205 69.438,244.03 42.471,195.059 1.354,120.391 65.497,71.394 65.497,71.394 c 0,0 -67.425,23.7 -65.455,90.145 1.97,66.445 31.994,95.986 46.376,111.807 15.2,16.719 24.046,45.267 22.37,46.384 l 40.131,-33.082 c 26.402,15.391 53.042,24.996 79.204,40.864 0,0 -6.925,15.211 7.713,20.605 9.158,3.375 13.959,1.322 16.434,-3.88 2.828,-5.943 0.889,-19.22 -24.147,-34.473 z"
       id="path2"
       style="fill:#ecb21d;fill-opacity:1" />
    <path
       d="m 151.5,44.183 c -52.403,0 -94.948,42.544 -94.948,94.948 0,52.403 42.545,94.948 94.948,94.948 52.403,0 94.948,-42.545 94.948,-94.948 0,-52.404 -42.545,-94.948 -94.948,-94.948 z m 0,18.178 c 42.37,0 76.77,34.399 76.77,76.77 0,42.37 -34.4,76.77 -76.77,76.77 -42.37,0 -76.77,-34.4 -76.77,-76.77 0,-42.371 34.4,-76.77 76.77,-76.77 z"
       id="path3"
       style="fill:#ecb21d;fill-opacity:1" />
    <path
       d="m 139.943,260.95 c -10.099,-7.418 -22.722,-13.943 -36.098,-20.462 36.481,-62.959 34.407,-129.809 1.226,-198.015 18.653,-10.856 34.115,-24.755 46.352,-41.733 l 0.287,0.398 c 12.191,16.797 27.559,30.564 46.065,41.336 -33.181,68.206 -35.255,135.056 1.226,198.015 -13.376,6.52 -26,13.043 -36.098,20.462 v 78.12 c 5.162,3.456 8.54,9.179 8.54,15.648 0,10.543 -8.971,19.102 -20.02,19.102 -11.049,0 -20.02,-8.56 -20.02,-19.102 0,-6.47 3.378,-12.192 8.54,-15.648 v -78.12 z"
       id="path4"
       style="fill:#ecb21d;fill-opacity:1" />
  </g>
</svg>
